HIERARCHY
ROOT Hips
{
	OFFSET 0.00000 0.00000 0.00000
	CHANNELS 6 Xposition Yposition Zposition Zrotation Yrotation Xrotation 
	JOINT LHipJoint
	{
		OFFSET 0 0 0
		CHANNELS 3 Zrotation Yrotation Xrotation
		JOINT LeftUpLeg
		{
			OFFSET 1.67711 -1.75950 0.70433
			CHANNELS 3 Zrotation Yrotation Xrotation
			JOINT LeftLeg
			{
				OFFSET 2.44937 -6.72958 0.00000
				CHANNELS 3 Zrotation Yrotation Xrotation
				JOINT LeftFoot
				{
					OFFSET 2.61292 -7.17894 0.00000
					CHANNELS 3 Zrotation Yrotation Xrotation
					JOINT LeftToeBase
					{
						OFFSET 0.17811 -0.48914 1.82515
						CHANNELS 3 Zrotation Yrotation Xrotation
						End Site
						{
							OFFSET -0.00112 -0.00292 0.95564
						}
					}
				}
			}
		}
	}
	JOINT RHipJoint
	{
		OFFSET 0 0 0
		CHANNELS 3 Zrotation Yrotation Xrotation
		JOINT RightUpLeg
		{
			OFFSET -1.61866 -1.75949 0.70433
			CHANNELS 3 Zrotation Yrotation Xrotation
			JOINT RightLeg
			{
				OFFSET -2.36243 -6.49072 0.00000
				CHANNELS 3 Zrotation Yrotation Xrotation
				JOINT RightFoot
				{
					OFFSET -2.64336 -7.26259 0.00000
					CHANNELS 3 Zrotation Yrotation Xrotation
					JOINT RightToeBase
					{
						OFFSET -0.18169 -0.49935 1.90192
						CHANNELS 3 Zrotation Yrotation Xrotation
						End Site
						{
							OFFSET 0.00039 0.00229 0.99264
						}
					}
				}
			}
		}
	}
	JOINT LowerBack
	{
		OFFSET 0 0 0
		CHANNELS 3 Zrotation Yrotation Xrotation
		JOINT Spine
		{
			OFFSET -0.01926 2.19655 -0.12599
			CHANNELS 3 Zrotation Yrotation Xrotation
			JOINT Spine1
			{
				OFFSET 0.01663 2.20532 -0.00079
				CHANNELS 3 Zrotation Yrotation Xrotation
				JOINT Neck
				{
					OFFSET 0 0 0
					CHANNELS 3 Zrotation Yrotation Xrotation
					JOINT Neck1
					{
						OFFSET 0.10604 1.75174 0.14226
						CHANNELS 3 Zrotation Yrotation Xrotation
						JOINT Head
						{
							OFFSET -0.09898 1.68516 -0.48414
							CHANNELS 3 Zrotation Yrotation Xrotation
							End Site
							{
								OFFSET -0.02896 1.78316 -0.18415
							}
						}
					}
				}
				JOINT LeftShoulder
				{
					OFFSET 0 0 0
					CHANNELS 3 Zrotation Yrotation Xrotation
					JOINT LeftArm
					{
						OFFSET 3.30655 1.16959 -0.30867
						CHANNELS 3 Zrotation Yrotation Xrotation
						JOINT LeftForeArm
						{
							OFFSET 5.35289 -0.00000 -0.00000
							CHANNELS 3 Zrotation Yrotation Xrotation
							JOINT LeftHand
							{
								OFFSET 3.27727 -0.00000 -0.00000
								CHANNELS 3 Zrotation Yrotation Xrotation
								JOINT LeftFingerBase
								{
									OFFSET 0 0 0
									CHANNELS 3 Zrotation Yrotation Xrotation
									JOINT LeftHandIndex1
									{
										OFFSET 0.54443 0.00002 0.00009
										CHANNELS 3 Zrotation Yrotation Xrotation
										End Site
										{
											OFFSET 0.43891 -0.00000 -0.00000
										}
									}
								}
								JOINT LThumb
								{
									OFFSET 0 0 0
									CHANNELS 3 Zrotation Yrotation Xrotation
									End Site
									{
										OFFSET 0.44564 0.00002 0.44570
									}
								}
							}
						}
					}
				}
				JOINT RightShoulder
				{
					OFFSET 0 0 0
					CHANNELS 3 Zrotation Yrotation Xrotation
					JOINT RightArm
					{
						OFFSET -3.27172 0.97864 -0.36131
						CHANNELS 3 Zrotation Yrotation Xrotation
						JOINT RightForeArm
						{
							OFFSET -5.52076 -0.00317 -0.00590
							CHANNELS 3 Zrotation Yrotation Xrotation
							JOINT RightHand
							{
								OFFSET -3.32364 -0.00000 -0.00000
								CHANNELS 3 Zrotation Yrotation Xrotation
								JOINT RightFingerBase
								{
									OFFSET 0 0 0
									CHANNELS 3 Zrotation Yrotation Xrotation
									JOINT RightHandIndex1
									{
										OFFSET -0.73223 -0.00000 -0.00000
										CHANNELS 3 Zrotation Yrotation Xrotation
										End Site
										{
											OFFSET -0.59035 -0.00000 -0.00000
										}
									}
								}
								JOINT RThumb
								{
									OFFSET 0 0 0
									CHANNELS 3 Zrotation Yrotation Xrotation
									End Site
									{
										OFFSET -0.59936 -0.00000 0.59936
									}
								}
							}
						}
					}
				}
			}
		}
	}
}
MOTION
Frames: 10
Frame Time: .0083333
15.9441 20.0406 10.3166 1.2445 -4.7104 7.0611 0.0000 0.0000 0.0000 -26.4113 -4.8680 -4.5132 0.3348 3.7183 10.2854 -0.0653 -7.5612 -3.6953 0.0338 -1.1860 -3.2607 0.0000 0.0000 0.0000 13.9477 5.6435 -44.7693 -23.2571 -19.7437 99.5625 -0.1353 7.8972 -8.0343 -0.6968 5.3361 -14.8698 -2.9438 1.0036 8.4845 -0.7177 1.0225 0.6665 0.7889 0.5515 -4.1060 12.2778 16.3999 -11.1743 -17.8135 28.0374 30.6438 -3.7707 11.3757 18.0318 0.0000 0.0000 0.0000 -86.8835 8.0509 19.5333 52.5620 -53.9779 -28.2335 -0.0000 0.0000 -5.4043 9.9926 23.9918 4.0978 -7.1250 0.0000 -0.0000 -19.9716 53.1739 -4.1466 0.0000 0.0000 0.0000 88.1159 -11.8192 31.8324 -39.3963 47.7082 -17.9914 0.0000 -0.0000 -5.2808 -16.5094 22.7319 -6.5337 7.1250 -0.0000 -0.0000 7.7893 -6.5572 6.9146
15.9331 20.0436 10.3657 1.1436 -4.7348 7.1025 0.0000 0.0000 0.0000 -26.3016 -4.4161 -3.7429 0.2623 3.2951 9.1014 -0.0766 -7.4242 -3.2346 0.0777 -1.7981 -4.9480 0.0000 0.0000 0.0000 14.1264 5.9424 -45.5573 -22.9493 -19.7902 98.6523 -0.2211 7.6822 -9.2843 -0.6724 5.2437 -14.6050 -2.7733 0.9953 8.4419 -0.7023 1.0317 0.7594 0.7098 0.5511 -3.9829 13.0874 16.4750 -10.4830 -18.5352 28.2061 30.2218 -4.1845 11.5396 18.0391 0.0000 0.0000 0.0000 -86.4816 8.1167 19.7703 52.6214 -53.9996 -28.2815 -0.0000 0.0000 -5.0293 10.2512 23.4894 4.1230 -7.1250 0.0000 -0.0000 -19.4554 52.7458 -3.8247 0.0000 0.0000 0.0000 88.2189 -11.7838 31.3783 -39.3215 47.6628 -17.9361 0.0000 -0.0000 -5.3852 -16.9391 22.5011 -6.6483 7.1250 -0.0000 -0.0000 7.5058 -6.7332 6.6326
15.9227 20.0400 10.4098 1.1757 -4.6626 7.0816 0.0000 0.0000 0.0000 -26.3149 -4.1194 -3.0899 0.2167 2.9969 8.2700 -0.0896 -7.3293 -2.7204 0.1122 -2.1600 -5.9481 0.0000 0.0000 0.0000 14.1866 6.0168 -46.5096 -22.6518 -19.8306 97.7743 -0.3119 7.0988 -10.4079 -0.7070 5.3739 -14.9782 -2.7471 0.9276 8.3075 -0.6932 0.9556 1.0628 0.7188 0.5063 -3.5898 12.9354 16.6805 -11.0644 -18.3037 28.4253 30.2427 -3.9448 11.5801 18.1464 -0.0000 -0.0000 0.0000 -86.0792 7.5388 19.9183 52.1153 -53.8138 -27.8725 -0.0000 0.0000 -4.7852 11.0348 22.4590 4.2606 -7.1250 0.0000 -0.0000 -18.1843 51.9013 -3.1771 -0.0000 -0.0000 0.0000 88.2238 -11.2843 31.0367 -38.9292 47.4225 -17.6466 0.0000 -0.0000 -5.4665 -17.6913 22.8838 -7.0707 7.1250 -0.0000 -0.0000 7.0605 -6.2367 6.3009
15.9198 20.0571 10.4558 1.4727 -4.4842 7.1032 0.0000 0.0000 0.0000 -26.6186 -4.0519 -2.6284 0.1855 2.7743 7.6511 -0.1134 -7.4345 -2.0216 0.2613 -3.2884 -9.0828 0.0000 0.0000 0.0000 13.8971 5.9082 -47.7866 -22.2887 -19.8739 96.7052 -0.3790 6.1364 -11.1244 -0.8247 5.7942 -16.1885 -2.9520 0.7998 8.1745 -0.7512 0.7760 1.3219 0.7980 0.4133 -3.2427 12.7080 16.7821 -11.5774 -18.0124 28.4749 30.2839 -3.7279 11.5568 18.1732 0.0000 0.0000 0.0000 -85.7028 6.9064 19.9353 51.5142 -53.5882 -27.3881 -0.0000 0.0000 -4.6082 11.2310 22.3627 4.3204 -7.1250 0.0000 -0.0000 -17.9497 51.8422 -3.1073 0.0000 0.0000 0.0000 88.1645 -10.6680 30.8030 -38.1479 46.9335 -17.0736 0.0000 -0.0000 -5.4497 -18.6374 24.0072 -7.8131 7.1250 -0.0000 -0.0000 6.5585 -4.9453 6.0090
15.9134 20.1090 10.5068 1.5040 -4.4357 7.2363 0.0000 0.0000 0.0000 -26.5524 -3.9306 -2.4891 0.1540 2.5290 6.9701 -0.1386 -7.5902 -1.2504 0.0668 -1.6671 -4.5866 0.0000 0.0000 0.0000 13.9517 6.0967 -48.7815 -21.7841 -19.9235 95.2229 -0.4439 5.1927 -11.8820 -0.8658 5.9332 -16.5906 -3.0484 0.7359 8.3049 -0.6949 0.6761 1.1650 0.9187 0.3695 -3.4763 12.8742 16.7250 -11.3503 -18.0157 28.3604 30.2967 -3.8059 11.5476 18.1328 0.0000 -0.0000 0.0000 -85.3806 7.0142 20.0184 51.0054 -53.3930 -26.9792 -0.0000 0.0000 -4.3483 10.7568 23.5427 4.3395 -7.1250 0.0000 -0.0000 -18.9945 52.8845 -3.7944 0.0000 -0.0000 0.0000 88.0999 -10.7911 30.5450 -37.6128 46.5902 -16.6837 0.0000 -0.0000 -5.5026 -19.5045 24.3702 -8.3153 7.1250 -0.0000 -0.0000 6.0556 -4.4348 5.6012
15.9029 20.1263 10.5568 1.4996 -4.4700 7.3326 0.0000 0.0000 0.0000 -26.5010 -3.6556 -2.1812 0.1238 2.2684 6.2481 -0.1494 -7.5400 -0.6381 0.0290 -1.0993 -3.0221 0.0000 0.0000 0.0000 14.0513 6.4385 -49.6674 -21.2937 -19.9598 93.7851 -0.5272 4.2578 -12.9264 -0.8852 5.9974 -16.7768 -3.2252 0.6898 8.5931 -0.5620 0.5860 0.8868 1.1615 0.3369 -3.9259 13.0012 16.6801 -10.8388 -17.9711 28.2735 30.3041 -3.8748 11.5757 18.0043 0.0000 -0.0000 0.0000 -85.1747 7.3672 20.1344 50.1653 -53.0619 -26.3062 -0.0000 0.0000 -3.9645 10.9173 24.4377 4.5623 -7.1250 0.0000 -0.0000 -19.3140 53.7604 -4.2838 0.0000 -0.0000 0.0000 87.9797 -11.3138 30.2498 -37.6222 46.5963 -16.6906 0.0000 -0.0000 -5.9553 -19.6801 23.8087 -8.2157 7.1250 -0.0000 -0.0000 5.8973 -4.9849 5.3918
15.8902 20.1214 10.6095 1.8579 -4.4755 7.3125 0.0000 0.0000 0.0000 -26.8742 -3.4586 -1.8848 0.1118 2.1559 5.9366 -0.1501 -7.3713 -0.2035 0.0180 -0.8660 -2.3802 0.0000 0.0000 0.0000 13.7241 6.6394 -50.5353 -20.8260 -19.9836 92.4156 -0.6049 3.3648 -13.9319 -0.8266 5.8005 -16.2068 -3.7374 0.6069 8.7472 -0.5418 0.4214 0.9090 1.4889 0.2644 -3.9857 12.6999 16.7276 -10.8936 -17.6102 28.2605 30.3699 -3.6807 11.5670 17.8854 -0.0000 -0.0000 0.0000 -85.1272 7.3852 19.9779 49.4219 -52.7597 -25.7132 -0.0000 0.0000 -3.3750 11.6697 24.1245 4.8253 -7.1250 0.0000 -0.0000 -18.4099 53.5998 -3.9988 -0.0000 -0.0000 0.0000 87.8132 -11.1954 30.0554 -37.5453 46.5464 -16.6347 0.0000 -0.0000 -6.8522 -19.3982 23.0988 -7.8652 7.1250 -0.0000 -0.0000 6.0119 -5.7613 5.4085
15.8747 20.1207 10.6536 1.9518 -4.4041 7.3387 0.0000 0.0000 0.0000 -26.9487 -3.2538 -1.4392 0.0927 1.9631 5.4037 -0.1452 -7.0678 0.3123 0.0372 -1.2456 -3.4249 0.0000 0.0000 0.0000 13.7131 6.9251 -51.3567 -20.3030 -19.9978 90.8859 -0.6554 2.4648 -14.6518 -0.7118 5.3920 -15.0301 -3.8699 0.5311 8.7896 -0.5355 0.3094 1.0354 1.5838 0.2075 -3.8725 12.5193 16.7492 -11.0847 -17.3516 28.2081 30.4112 -3.5455 11.5346 17.8318 -0.0000 0.0000 0.0000 -84.9999 7.2803 19.6962 49.2940 -52.7068 -25.6114 -0.0000 0.0000 -2.2183 11.3174 24.8364 4.8051 -7.1250 0.0000 -0.0000 -19.1410 54.2109 -4.4574 -0.0000 0.0000 0.0000 87.7754 -10.8508 29.7498 -37.4082 46.4572 -16.5353 0.0000 -0.0000 -7.6646 -19.2924 22.5058 -7.6316 7.1250 -0.0000 -0.0000 6.0303 -6.3890 5.3522
15.8642 20.1220 10.6934 1.8449 -4.3259 7.4715 0.0000 0.0000 0.0000 -26.8170 -3.1153 -1.1996 0.0848 1.8784 5.1698 -0.1396 -6.8197 0.6999 0.0746 -1.7621 -4.8485 0.0000 0.0000 0.0000 13.8701 7.2676 -52.2711 -19.7094 -19.9980 89.1503 -0.6632 1.5681 -14.9283 -0.6483 5.1505 -14.3384 -3.7084 0.4876 8.8718 -0.5014 0.2626 0.9376 1.5335 0.1858 -4.0170 12.9014 16.7387 -10.6311 -17.4625 28.1653 30.3636 -3.6931 11.5873 17.7942 0.0000 -0.0000 0.0000 -84.7138 7.4962 19.7142 48.9863 -52.5784 -25.3668 -0.0000 0.0000 -1.6581 10.8705 24.7675 4.5996 -7.1250 0.0000 -0.0000 -19.5415 54.0632 -4.4845 0.0000 -0.0000 0.0000 87.8055 -11.0720 29.2416 -37.4007 46.4523 -16.5299 0.0000 -0.0000 -8.1363 -19.3038 21.9921 -7.4727 7.1250 -0.0000 -0.0000 5.9835 -6.9177 5.2487
15.8523 20.1416 10.7432 1.6771 -4.4880 7.5235 0.0000 0.0000 0.0000 -26.6065 -2.7944 -1.2160 0.0861 1.8923 5.2080 -0.1349 -6.5973 1.2031 0.0406 -1.3006 -3.5763 0.0000 0.0000 0.0000 14.0800 7.7932 -52.8480 -19.0191 -19.9769 87.1309 -0.6671 1.1089 -15.0920 -0.5881 4.9098 -13.6516 -3.6175 0.5355 8.9439 -0.4220 0.3341 0.8963 1.5556 0.2222 -4.1041 12.9769 16.7094 -10.5293 -17.2679 28.0783 30.5622 -3.6612 11.5781 17.8205 -0.0000 -0.0000 0.0000 -84.4120 7.5830 19.8355 48.4592 -52.3549 -24.9489 -0.0000 0.0000 -1.3992 10.9142 25.1847 4.6909 -7.1250 0.0000 -0.0000 -19.7337 54.4645 -4.7280 -0.0000 -0.0000 0.0000 87.8176 -11.2733 28.6822 -37.3583 46.4245 -16.4991 0.0000 -0.0000 -8.5878 -19.3143 21.6166 -7.3569 7.1250 -0.0000 -0.0000 5.9487 -7.3042 5.1728
